<?xml version="1.0" encoding="utf-8"?>
<!-- Generator: Adobe Illustrator 19.2.0, SVG Export Plug-In . SVG Version: 6.00 Build 0)  -->
<!DOCTYPE svg PUBLIC "-//W3C//DTD SVG 1.1//EN" "http://www.w3.org/Graphics/SVG/1.1/DTD/svg11.dtd">
<svg version="1.1" id="Layer_1" xmlns="http://www.w3.org/2000/svg" xmlns:xlink="http://www.w3.org/1999/xlink" x="0px" y="0px"
	 viewBox="0 0 400.2 56.7" style="enable-background:new 0 0 400.2 56.7;" xml:space="preserve">
<style type="text/css">
	.st0{fill:#FFFFFF;}
	.st1{fill:#EC1234;}
</style>
<g>
	<path class="st0" d="M82.1,9.8H90l11.5,36.6h-7.9L91,37.7H80.3l-2.6,8.7h-7.7L82.1,9.8z M82.1,31.6h7.1c0,0-1.2-3.8-2-7.4
		c-0.4-1.7-1.5-6.5-1.5-6.5s-1.1,4.3-1.7,7C83.4,27.5,82.9,29.2,82.1,31.6z"/>
	<path class="st0" d="M101.6,20.5l6.3-1.7c0.6,1.1,1,2.3,1.1,3.8c1-1.4,2.7-2.8,4-3.4c0.6-0.3,1.5-0.4,2.3-0.4
		c1.1,0,1.5,0.1,2.6,0.6l-1.9,6.2c-0.7-0.4-1.3-0.5-2-0.5c-1.6,0-3,0.7-4.3,2.3v19h-7v-18C102.6,24.8,102.2,22.1,101.6,20.5z"/>
	<path class="st0" d="M136.3,21.8l-3.4,4.6c-1.4-1.3-2.9-2.1-4.3-2.1c-3.2,0-4.6,2.7-4.6,9c0,3.5,0.4,5.6,1.4,6.8
		c0.7,0.9,1.9,1.5,3.2,1.5c1.6,0,3.1-0.7,4.8-2.2l0.4-0.4l3.2,4.3c-1.1,1.1-1.5,1.4-2.5,2c-1.9,1.1-4,1.7-6.6,1.7
		c-7.4,0-11.7-5.2-11.7-13.9c0-6.2,2.4-10.3,5.5-12.5c1.8-1.2,4.4-2,6.7-2c1.8,0,3.7,0.5,5.2,1.2C134.7,20.4,135.2,20.8,136.3,21.8z
		"/>
	<path class="st0" d="M137.7,9.1l7.2-1.7c0.3,1.5,0.5,4,0.5,6.6v5.4c0,0.8-0.1,1.9-0.1,2.3c1.8-1.7,4.9-2.9,7.6-2.9
		c3.3,0,6.1,1.6,7,3.8c0.5,1.5,0.7,1.9,0.7,5v18.8h-6.9V28.3c0-2.7-0.7-3.7-2.7-3.7c-1.7,0-4,1.1-5.6,2.5v19.3h-7.1V15.3
		C138.3,12.7,138.1,10.2,137.7,9.1z"/>
	<path class="st0" d="M167,7.7c2.4,0,4.3,1.9,4.3,4.4s-1.9,4.4-4.4,4.4c-2.4,0-4.3-1.9-4.3-4.4S164.6,7.7,167,7.7z M163.3,19.9
		l7-1.1v27.5h-7V19.9z"/>
	<path class="st0" d="M188.5,19.4l-1.8,4.7h-4.5v13.7c0,3.4,0.6,4.3,3,4.3c0.6,0,1.3-0.2,2.5-0.5l0.9,4.2c-2,0.8-3.9,1.2-5.7,1.2
		c-3.6,0-6.5-1.6-7.3-3.9c-0.4-1.2-0.5-1.7-0.5-4.2V24.1h-2.7v-4.6h2.7c0-2.6,0-4.4,0.3-6.4l7.1-1.8c-0.3,2.5-0.4,5.4-0.4,8.1H188.5
		z"/>
	<path class="st0" d="M207.1,39.2l2.7,4.2c-3.1,2.5-6.4,3.7-10.1,3.7c-7.7,0-12.7-5.5-12.7-13.9c0-4.8,1-8,3.4-10.7
		c2.2-2.5,4.9-3.6,8.5-3.6c3.1,0,6,1.1,7.8,2.8c2.5,2.5,3.6,6.1,3.6,11.8c0,0.6,0,0.8,0,1.6h-15.6v0.2c0,4.2,2,6.5,5.7,6.5
		C202.7,41.9,205,41,207.1,39.2z M194.7,30h8.1v-0.3c0-2-0.2-3-0.8-4c-0.7-1.1-1.7-1.6-3.1-1.6c-2.7,0-4.2,2.1-4.2,5.8V30z"/>
	<path class="st0" d="M231.9,21.8l-3.4,4.6c-1.4-1.3-2.9-2.1-4.3-2.1c-3.2,0-4.6,2.7-4.6,9c0,3.5,0.4,5.6,1.4,6.8
		c0.7,0.9,1.9,1.5,3.2,1.5c1.6,0,3.1-0.7,4.8-2.2l0.4-0.4l3.2,4.3c-1.1,1.1-1.5,1.4-2.5,2c-1.9,1.1-4,1.7-6.6,1.7
		c-7.4,0-11.7-5.2-11.7-13.9c0-6.2,2.4-10.3,5.5-12.5c1.8-1.2,4.4-2,6.7-2c1.8,0,3.7,0.5,5.2,1.2C230.3,20.4,230.8,20.8,231.9,21.8z
		"/>
	<path class="st0" d="M249,19.4l-1.8,4.7h-4.5v13.7c0,3.4,0.6,4.3,3,4.3c0.6,0,1.3-0.2,2.5-0.5l0.9,4.2c-2,0.8-3.9,1.2-5.7,1.2
		c-3.6,0-6.5-1.6-7.3-3.9c-0.4-1.2-0.5-1.7-0.5-4.2V24.1h-2.7v-4.6h2.7c0-2.6,0-4.4,0.3-6.4l7.1-1.8c-0.3,2.5-0.4,5.4-0.4,8.1H249z"
		/>
	<path class="st0" d="M270.6,21.3l-2.3,4.7c-2.7-1.4-4.6-1.9-6.6-1.9c-2.1,0-3.4,1.1-3.4,2.6c0,1.4,0.9,2.1,3.4,2.7l3.3,0.8
		c3.3,0.8,4.4,1.8,5.4,3c1,1.3,1.5,2.8,1.5,4.6c0,5.6-4.6,9.4-11.5,9.4c-3.3,0-6.9-1.1-10.9-3.1l2.5-5.2c2.2,1.3,5.9,3,8.9,3
		c2,0,3.6-1.3,3.6-3c0-1.8-1.3-2.8-4.2-3.3l-3.2-0.6c-1.8-0.3-4-1.6-4.9-2.7c-0.9-1.2-1.5-3.1-1.5-4.8c0-5.3,4.2-8.8,10.4-8.8
		C265.3,18.7,268.1,20.1,270.6,21.3z"/>
	<path class="st0" d="M300.8,19c3.8,0,6.8,1.3,9.1,4c2.2,2.5,3.1,5.5,3.1,9.8c0,4.6-1.1,7.8-3.4,10.4c-2,2.3-4.7,3.7-8.9,3.7
		c-7.3,0-12.1-5.5-12.1-13.9C288.7,24.6,293.6,19,300.8,19z M300.9,24.2c-1.7,0-3.1,1.1-3.6,2.7c-0.5,1.4-0.7,3.3-0.7,6
		c0,3.1,0.3,5.4,0.9,6.8c0.6,1.5,2.2,2.2,3.6,2.2c3,0,4.4-2.7,4.4-9.1c0-3.6-0.5-6-1.4-7.2C303.3,24.7,302.2,24.2,300.9,24.2z"/>
	<path class="st0" d="M328.6,13.5c-1.5-0.7-2-0.9-2.9-0.9c-1.8,0-2.9,1.1-2.9,3v3.8h6.8l-1.8,4.9h-5v22h-6.9v-22h-2.4v-4.9h2.6
		c-0.2-1.1-0.3-2.4-0.3-3.6c0-5.3,3.2-8.4,8.7-8.4c2.3,0,4.2,0.5,6.4,1.7L328.6,13.5z"/>
	<path class="st0" d="M353.4,9.8h7.9l11.5,36.6H365l-2.6-8.7h-10.7l-2.6,8.7h-7.7L353.4,9.8z M353.5,31.6h7.1c0,0-1.2-3.8-2-7.4
		c-0.4-1.7-1.5-6.5-1.5-6.5s-1.1,4.3-1.7,7C354.7,27.5,354.3,29.2,353.5,31.6z"/>
	<path class="st0" d="M377.3,7.7c2.4,0,4.3,1.9,4.3,4.4s-1.9,4.4-4.4,4.4c-2.4,0-4.3-1.9-4.3-4.4S374.9,7.7,377.3,7.7z M373.7,19.9
		l7-1.1v27.5h-7V19.9z"/>
	<path class="st0" d="M383.9,20.5l6.3-1.7c0.6,1.1,1,2.3,1.1,3.8c1-1.4,2.7-2.8,4-3.4c0.6-0.3,1.5-0.4,2.3-0.4
		c1.1,0,1.5,0.1,2.6,0.6l-1.9,6.2c-0.7-0.4-1.3-0.5-2.1-0.5c-1.6,0-3,0.7-4.3,2.3v19h-7v-18C384.9,24.8,384.5,22.1,383.9,20.5z"/>
	<path class="st1" d="M28.3,8.2c11.1,0,20.1,9,20.1,20.1s-9,20.1-20.1,20.1s-20.1-9-20.1-20.1S17.3,8.2,28.3,8.2 M28.3,0
		C12.7,0,0,12.7,0,28.3s12.7,28.3,28.3,28.3C44,56.7,56.7,44,56.7,28.3S44,0,28.3,0L28.3,0z"/>
</g>
</svg>
