<?xml version="1.0" encoding="utf-8"?>
<!-- Generator: Adobe Illustrator 19.2.1, SVG Export Plug-In . SVG Version: 6.00 Build 0)  -->
<!DOCTYPE svg PUBLIC "-//W3C//DTD SVG 1.1//EN" "http://www.w3.org/Graphics/SVG/1.1/DTD/svg11.dtd">
<svg version="1.1" id="Layer_1" xmlns="http://www.w3.org/2000/svg" xmlns:xlink="http://www.w3.org/1999/xlink" x="0px" y="0px"
	 viewBox="0 0 100 43.8" style="enable-background:new 0 0 100 43.8;" xml:space="preserve">
<path d="M100,31.6c-0.1-1.1-0.6-1.9-1.7-2.3c-0.3-0.1-0.5,0-0.7,0.2c-0.8,0.9-1.5,1.9-2.4,2.6c-3.4,3.1-7.3,5.2-12,5.4
	c-2.2,0.1-3.6-0.8-4-2.6c0.2-0.1,0.4-0.1,0.5-0.2c3.6-1,7.1-2.4,10.1-4.7c3.7-2.9,5.9-6.6,5.4-11.4c-0.1-1.3-0.6-2.5-1.5-3.5
	c-1.2-1.4-2.8-1.9-4.6-2.2c-4.4-0.5-8.1,0.9-11.1,4c-4,4-6,8.9-6.4,14.4c0,0.2-0.1,0.5-0.3,0.7c-3.3,3.1-7,5.2-11.7,5.5
	c-2.2,0.1-3.5-0.8-4-2.9c-0.2-1.1-0.4-0.8,0.7-1.3c0.3-0.1,0.5-0.3,0.8-0.4c3.3-1.8,6.2-4.1,8.8-6.7c3.7-3.7,6.6-8,8-13.1
	c0.8-2.7,1.2-5.5,0.4-8.4c-0.4-1.6-1.3-2.9-2.9-3.7c-2-1-4.1-1.1-6.2-0.6c-2.6,0.6-4.7,2.1-6.6,4c-3.6,3.6-5.9,8-7.7,12.6
	c-1.7,4.5-2.9,9.2-3,14.1c0,0.2-0.1,0.5-0.3,0.6c-3.4,3.2-7.2,5.5-12,5.8c-2.2,0.1-3.5-0.8-4-2.9c-0.2-1.1-0.4-0.8,0.7-1.3
	c0.3-0.1,0.5-0.3,0.8-0.4c3.3-1.8,6.2-4.1,8.8-6.7c3.6-3.7,6.5-7.9,8-13c0.8-2.8,1.2-5.6,0.5-8.4c-0.4-1.6-1.3-2.9-2.9-3.7
	c-2-1-4.1-1.1-6.2-0.6c-2.6,0.6-4.7,2.1-6.6,4c-3.6,3.6-5.9,7.9-7.7,12.6c-1.8,4.6-2.9,9.4-3.1,14.3c0,0.2-0.1,0.5-0.2,0.6
	c-3.5,3.2-7.5,5.5-12.5,5.7c-2.1,0.1-3.5-0.8-3.9-2.6c0.2-0.1,0.4-0.1,0.5-0.2c3.6-1,7.1-2.4,10.1-4.7c3.7-2.9,5.9-6.6,5.4-11.4
	C23.5,17.2,23,16,22.1,15c-1.2-1.4-2.8-1.9-4.6-2.2c-4.3-0.5-8,0.8-11,3.9C1.4,22-0.7,28.3,0.2,35.5c0.6,4.9,4.2,8.1,9.1,8.3
	c4,0.2,7.7-0.7,11.2-2.6c1.6-0.9,3.1-2,4.5-2.9c0.7,1,1.4,2.2,2.3,3.1c1.8,1.9,4.3,2.4,6.8,2.4c4.3,0,8.4-1.3,12.1-3.6
	c1-0.6,1.9-1.3,2.9-2c0.1,0.1,0.1,0.3,0.2,0.4c1.3,2.9,3.5,4.5,6.6,5c3.7,0.5,7.3-0.2,10.8-1.6c2.2-0.9,4.2-2.1,5.9-3.6
	c0.1,0,0.1,0,0.1,0c0,0.1,0.1,0.1,0.1,0.2c1.3,2.8,3.5,4.4,6.6,5c3,0.5,5.9,0.2,8.7-0.7c4-1.2,7.6-3.3,10.3-6.6
	C99.4,34.9,100.2,33.4,100,31.6z M58.2,18.8c1-2.9,2.2-5.7,4-8.2c0.7-0.9,1.5-1.7,2.3-2.5c0.3-0.3,0.8-0.5,1.2-0.6
	c1.1-0.3,1.8,0.2,1.9,1.4c0.1,1.4-0.1,2.8-0.6,4.1c-1.9,5.3-5.1,9.6-9.8,12.9c-0.2,0.1-0.4,0.2-0.5,0.3c-0.2,0.1-0.4,0.2-0.7,0.4
	C56.5,23.8,57.3,21.2,58.2,18.8z M38.3,10.5c0.6-0.9,1.5-1.7,2.3-2.5c0.3-0.3,0.8-0.5,1.2-0.6c1.2-0.3,1.9,0.2,2,1.5
	c0.1,1.9-0.3,3.6-1.1,5.3c-2,4.7-5,8.6-9.3,11.6c-0.4,0.3-0.8,0.5-1.3,0.8C33.4,20.8,35.1,15.3,38.3,10.5z M9.2,23.8
	c0.7-1.4,1.6-2.7,2.9-3.7c0.8-0.6,1.7-1.1,2.7-1.1c1.1,0,1.6,0.6,1.7,1.6c0.1,1.5-0.5,2.7-1.4,3.9c-2,2.5-4.8,3.9-7.8,4.9
	C7.7,27.4,8.3,25.5,9.2,23.8z M83.8,20.1c0.8-0.7,1.7-1.1,2.7-1.1c1.1,0,1.7,0.6,1.7,1.6c0.1,2-0.9,3.5-2.3,4.9
	c-1.9,1.9-4.3,3-6.9,3.9C79.7,25.8,80.9,22.5,83.8,20.1z"/>
</svg>
